HIERARCHY
ROOT Hips
{
  OFFSET 53.5358 91.5513 6.29799
  CHANNELS 6 Xposition Yposition Zposition Zrotation Xrotation Yrotation
  JOINT spine
  {
    OFFSET 0 6.84637 0.3937
    CHANNELS 3 Zrotation Xrotation Yrotation
    JOINT spine1
    {
      OFFSET 0 9.49621 0
      CHANNELS 3 Zrotation Xrotation Yrotation
      JOINT spine2
      {
        OFFSET 0 9.09909 0
        CHANNELS 3 Zrotation Xrotation Yrotation
        JOINT Neck
        {
          OFFSET 0 23.3612 1.11378
          CHANNELS 3 Zrotation Xrotation Yrotation
          JOINT Head
          {
            OFFSET 0 7.05802 0
            CHANNELS 3 Zrotation Xrotation Yrotation
            End Site
            {
              OFFSET 0 17.0844 -5.63419
            }
          }
        }
        JOINT RightShoulder
        {
          OFFSET -3.83136 9.82631 -0.533491
          CHANNELS 3 Zrotation Xrotation Yrotation
          JOINT RightArm
          {
            OFFSET 0 12.8881 0
            CHANNELS 3 Zrotation Xrotation Yrotation
            JOINT RightArmRoll
            {
              OFFSET 0 6.50617 0
              CHANNELS 3 Zrotation Xrotation Yrotation
              JOINT RightForeArm
              {
                OFFSET 0 18.9501 0
                CHANNELS 3 Zrotation Xrotation Yrotation
                JOINT RightForeArmRoll
                {
                  OFFSET 0 7.30093 0
                  CHANNELS 3 Zrotation Xrotation Yrotation
                  JOINT RightHand
                  {
                    OFFSET 0 14.6514 0
                    CHANNELS 3 Zrotation Xrotation Yrotation
                    End Site
                    {
                      OFFSET 0 0 0
                    }
                  }
                }
              }
            }
          }
        }
        JOINT LeftShoulder
        {
          OFFSET 3.83136 9.82631 -0.533491
          CHANNELS 3 Zrotation Xrotation Yrotation
          JOINT LeftArm
          {
            OFFSET 0 12.8881 0
            CHANNELS 3 Zrotation Xrotation Yrotation
            JOINT LeftArmRoll
            {
              OFFSET 0 6.50617 0
              CHANNELS 3 Zrotation Xrotation Yrotation
              JOINT LeftForeArm
              {
                OFFSET 0 18.9501 0
                CHANNELS 3 Zrotation Xrotation Yrotation
                JOINT LeftForeArmRoll
                {
                  OFFSET 0 7.30092 0
                  CHANNELS 3 Zrotation Xrotation Yrotation
                  JOINT LeftHand
                  {
                    OFFSET 0 14.6514 0
                    CHANNELS 3 Zrotation Xrotation Yrotation
                    End Site
                    {
                      OFFSET 0 0 0
                    }
                  }
                }
              }
            }
          }
        }
      }
    }
  }
  JOINT RightUpLeg
  {
    OFFSET -6.06837 -1.11278 -0.933477
    CHANNELS 3 Zrotation Xrotation Yrotation
    JOINT RightUpLegRoll
    {
      OFFSET 0 17.1796 0
      CHANNELS 3 Zrotation Xrotation Yrotation
      JOINT RightLeg
      {
        OFFSET 0 -21.2743 0
        CHANNELS 3 Zrotation Xrotation Yrotation
        JOINT RightLegRoll
        {
          OFFSET 0 21.3439 0
          CHANNELS 3 Zrotation Xrotation Yrotation
          JOINT RightFoot
          {
            OFFSET 0 17.7652 0
            CHANNELS 3 Zrotation Xrotation Yrotation
            JOINT RightToeBase
            {
              OFFSET 0 14.8508 0
              CHANNELS 3 Zrotation Xrotation Yrotation
              End Site
              {
                OFFSET 0.0062947 7.19214 -0.829004
              }
            }
          }
        }
      }
    }
  }
  JOINT LeftUpLeg
  {
    OFFSET 6.06837 -1.11278 -0.933477
    CHANNELS 3 Zrotation Xrotation Yrotation
    JOINT LeftUpLegRoll
    {
      OFFSET 0 17.1797 0
      CHANNELS 3 Zrotation Xrotation Yrotation
      JOINT LeftLeg
      {
        OFFSET 0 21.2742 0
        CHANNELS 3 Zrotation Xrotation Yrotation
        JOINT LeftLegRoll
        {
          OFFSET 0 21.5412 0
          CHANNELS 3 Zrotation Xrotation Yrotation
          JOINT LeftFoot
          {
            OFFSET 0 17.5679 0
            CHANNELS 3 Zrotation Xrotation Yrotation
            JOINT LeftToeBase
            {
              OFFSET 0 14.8508 0
              CHANNELS 3 Zrotation Xrotation Yrotation
              End Site
              {
                OFFSET -0.0282102 7.19213 -0.829005
              }
            }
          }
        }
      }
    }
  }
}
MOTION
Frames: 12
Frame Time: 0.00208333
53.894 91.5252 5.74311 -2.31454 4.83341 -2.70957 -0.657813 -4.06378 -0.00167573 -1.3105 -4.10937 0.0404409 -1.30772 -2.46454 0.0624516 34.1055 22.0224 -13.1234 -24.9091 6.5598 -0.859315 29.1665 -22.1726 -19.5122 -40.3772 38.2153 128.936 1.49301e-007 -5.46216e-007 -3.67408e-006 -10.5192 15.2023 1.48562 -6.95607e-006 -8.10334e-006 -3 8.02915 -4.95142 0.697667 14.0186 -24.1788 41.8645 57.1771 37.1062 -168.398 -2.38474e-007 9.29968e-007 -2.19292e-008 24.5791 17.5208 -9.70452 -1.33196e-005 -2.07889e-006 3.00616 -8.02894 -4.95147 -0.697699 178.564 7.4201 -1.5182 180 7.01585e-015 179.106 178.682 4.71273 179.918 -2.45963e-006 2.18442e-006 0.0322196 -18.5687 67.8693 19.4488 8.13649 25.2327 -3.48774 -171.87 6.15309 -1.75723 4.54188e-006 -4.6773e-006 -0.932996 -1.99988 -5.84027 0.0373811 -1.37365e-006 -4.47614e-006 -0.0911112 19.1546 68.6819 -20.1403 -8.13649 25.2327 3.48773 
53.8885 91.524 5.74419 -2.30419 4.81465 -2.70601 -0.657914 -4.06377 -0.00169516 -1.31113 -4.10945 0.0418364 -1.30819 -2.46462 0.0638656 34.007 22.0108 -13.0921 -24.8303 6.6218 -0.854463 29.297 -22.1053 -19.4064 -40.5727 38.121 128.88 1.49301e-007 -5.46216e-007 -3.67408e-006 -10.4469 15.2246 1.46706 -6.95607e-006 -8.10334e-006 -3 8.02915 -4.95142 0.697667 13.9961 -24.1223 41.707 57.1267 37.1753 -168.336 -2.38474e-007 9.29968e-007 -2.19292e-008 24.5411 17.5428 -9.69706 -1.33196e-005 -2.07889e-006 3.00616 -8.02894 -4.95147 -0.697699 178.553 7.40025 -1.50925 180 7.01585e-015 179.105 178.68 4.71121 179.918 -2.45963e-006 2.18442e-006 0.0322178 -18.5687 67.8693 19.4488 8.13649 25.2327 -3.48774 -171.881 6.13336 -1.75043 4.54188e-006 -4.6773e-006 -0.933495 -1.99779 -5.83417 0.0377379 -1.37365e-006 -4.47614e-006 -0.0910965 19.1489 68.6756 -20.1342 -8.13649 25.2327 3.48773 
53.8797 91.5213 5.74234 -2.2944 4.79542 -2.70241 -0.657843 -4.06361 -0.00168205 -1.31138 -4.10927 0.04316 -1.3083 -2.46444 0.0652006 33.9103 22.0039 -13.0619 -24.7543 6.67547 -0.85063 29.4115 -22.0408 -19.3075 -40.7531 38.0418 128.83 1.49301e-007 -5.46216e-007 -3.67408e-006 -10.3777 15.2453 1.44957 -6.95607e-006 -8.10334e-006 -3 8.02915 -4.95142 0.697667 13.9729 -24.0658 41.5488 57.0754 37.2503 -168.276 -2.38474e-007 9.29968e-007 -2.19292e-008 24.5018 17.5623 -9.68851 -1.33196e-005 -2.07889e-006 3.00616 -8.02894 -4.95147 -0.697699 178.543 7.38018 -1.5006 180 7.01585e-015 179.105 178.679 4.71 179.918 -2.45963e-006 2.18442e-006 0.0322159 -18.5686 67.8693 19.4488 8.13649 25.2327 -3.48774 -171.891 6.11418 -1.74392 4.54188e-006 -4.6773e-006 -0.933997 -1.99557 -5.82978 0.0380518 -1.37365e-006 -4.47614e-006 -0.0910814 19.1441 68.6702 -20.129 -8.13649 25.2327 3.48773 
53.8743 91.5241 5.74225 -2.28533 4.77572 -2.69881 -0.657585 -4.06329 -0.00163862 -1.31118 -4.10883 0.0443699 -1.30802 -2.464 0.066414 33.8163 22.0033 -13.0334 -24.6817 6.71853 -0.848102 29.5059 -21.98 -19.2175 -40.9165 37.9807 128.791 1.49301e-007 -5.46216e-007 -3.67408e-006 -10.3124 15.2642 1.4335 -6.95607e-006 -8.10334e-006 -3 8.02915 -4.95142 0.697667 13.9492 -24.0095 41.3907 57.0241 37.3308 -168.222 -2.38474e-007 9.29968e-007 -2.19292e-008 24.4616 17.5793 -9.67908 -1.33196e-005 -2.07889e-006 3.00616 -8.02894 -4.95147 -0.697699 178.534 7.35994 -1.49235 180 7.01585e-015 179.104 178.677 4.70916 179.918 -2.45963e-006 2.18442e-006 0.032214 -18.5685 67.8693 19.4487 8.13649 25.2327 -3.48774 -171.901 6.0957 -1.73781 4.54188e-006 -4.6773e-006 -0.934502 -1.99322 -5.8274 0.0383131 -1.37365e-006 -4.47614e-006 -0.0910659 19.1402 68.666 -20.1249 -8.13649 25.2327 3.48773 
53.8717 91.5236 5.74288 -2.27716 4.75557 -2.69526 -0.657121 -4.0628 -0.00156708 -1.3105 -4.10812 0.0454246 -1.30728 -2.46329 0.067463 33.7262 22.0104 -13.0071 -24.6132 6.74872 -0.847166 29.5763 -21.9242 -19.1386 -41.0611 37.9409 128.765 1.49301e-007 -5.46216e-007 -3.67408e-006 -10.2521 15.2813 1.41921 -6.95607e-006 -8.10334e-006 -3 8.02915 -4.95142 0.697667 13.9253 -23.9538 41.2335 56.9735 37.4164 -168.173 -2.38474e-007 9.29968e-007 -2.19292e-008 24.4211 17.5939 -9.66896 -1.33196e-005 -2.07889e-006 3.00616 -8.02894 -4.95147 -0.697699 178.525 7.33957 -1.4846 180 7.01585e-015 179.104 178.675 4.70875 179.919 -2.45963e-006 2.18442e-006 0.0322121 -18.5683 67.8692 19.4486 8.13649 25.2327 -3.48774 -171.91 6.07806 -1.73221 4.54188e-006 -4.6773e-006 -0.935009 -1.99071 -5.82735 0.0385124 -1.37365e-006 -4.47614e-006 -0.0910499 19.1375 68.663 -20.1219 -8.13649 25.2327 3.48773 
53.8657 91.5232 5.74234 -2.27004 4.73497 -2.6918 -0.656436 -4.06215 -0.00146968 -1.30928 -4.10715 0.0462824 -1.30604 -2.46231 0.0683051 33.6406 22.0268 -12.9837 -24.5492 6.76376 -0.848109 29.6186 -21.8743 -19.0728 -41.1851 37.9254 128.757 1.49301e-007 -5.46216e-007 -3.67408e-006 -10.1976 15.2965 1.40704 -6.95607e-006 -8.10334e-006 -3 8.02915 -4.95142 0.697667 13.9015 -23.899 41.0778 56.9245 37.5066 -168.133 -2.38474e-007 9.29968e-007 -2.19292e-008 24.3807 17.6058 -9.65833 -1.33196e-005 -2.07889e-006 3.00616 -8.02894 -4.95147 -0.697699 178.518 7.31911 -1.47746 180 7.01585e-015 179.103 178.673 4.70881 179.919 -2.45963e-006 2.18442e-006 0.0322103 -18.5681 67.869 19.4484 8.13649 25.2327 -3.48774 -171.917 6.06144 -1.72722 4.54188e-006 -4.6773e-006 -0.935517 -1.98805 -5.82992 0.0386401 -1.37365e-006 -4.47614e-006 -0.0910335 19.1361 68.6615 -20.1204 -8.13649 25.2327 3.48773 
53.8633 91.5223 5.74286 -2.26394 4.71382 -2.68799 -0.655516 -4.06137 -0.00127336 -1.30751 -4.10602 0.0471346 -1.30432 -2.46119 0.0691318 33.5597 22.0512 -12.9631 -24.4895 6.76618 -0.850862 29.6354 -21.8296 -19.0186 -41.2887 37.9333 128.763 1.49301e-007 -5.46216e-007 -3.67408e-006 -10.1473 15.3127 1.39686 -6.95607e-006 -8.10334e-006 -3 8.02915 -4.95142 0.697667 13.8783 -23.8436 40.9207 56.8746 37.6044 -168.1 -2.38474e-007 9.29968e-007 -2.19292e-008 24.3395 17.6152 -9.64701 -1.33196e-005 -2.07889e-006 3.00616 -8.02894 -4.95147 -0.697699 178.512 7.29833 -1.47089 180 7.01585e-015 179.103 178.671 4.70927 179.919 -2.45963e-006 2.18442e-006 0.0322085 -18.5679 67.8689 19.4482 8.13649 25.2327 -3.48774 -171.924 6.0464 -1.7227 4.54188e-006 -4.6773e-006 -0.936036 -1.98504 -5.83603 0.0386841 -1.37365e-006 -4.47614e-006 -0.0910167 19.1363 68.6618 -20.1206 -8.13649 25.2327 3.48773 
53.8606 91.526 5.74301 -2.25864 4.69202 -2.68345 -0.654371 -4.06048 -0.000921985 -1.30527 -4.10484 0.0481695 -1.30217 -2.46 0.070133 33.4823 22.0806 -12.9448 -24.4332 6.76044 -0.855044 29.6331 -21.7882 -18.9725 -41.3744 37.9603 128.778 1.49301e-007 -5.46216e-007 -3.67408e-006 -10.0989 15.3321 1.3882 -6.95607e-006 -8.10334e-006 -3 8.02915 -4.95142 0.697667 13.8561 -23.7862 40.759 56.8208 37.7122 -168.071 -2.38474e-007 9.29968e-007 -2.19292e-008 24.2962 17.6223 -9.63462 -1.33196e-005 -2.07889e-006 3.00616 -8.02894 -4.95147 -0.697699 178.507 7.27699 -1.46478 180 7.01585e-015 179.102 178.67 4.70999 179.919 -2.45963e-006 2.18442e-006 0.0322066 -18.5677 67.8687 19.448 8.13649 25.2327 -3.48774 -171.929 6.03321 -1.71844 4.54188e-006 -4.6773e-006 -0.936577 -1.98157 -5.84603 0.0386467 -1.37365e-006 -4.47614e-006 -0.0909994 19.1382 68.664 -20.1226 -8.13649 25.2327 3.48773 
53.8495 91.5262 5.7443 -2.25404 4.66961 -2.67832 -0.65302 -4.05949 -0.000443142 -1.30259 -4.10354 0.0493411 -1.29963 -2.45871 0.0712633 33.4076 22.1147 -12.9284 -24.38 6.74721 -0.860472 29.6136 -21.7496 -18.9334 -41.4431 38.0046 128.798 1.49301e-007 -5.46216e-007 -3.67408e-006 -10.0523 15.3538 1.38084 -6.95607e-006 -8.10334e-006 -3 8.02915 -4.95142 0.697667 13.8343 -23.7272 40.5934 56.7636 37.8293 -168.045 -2.38474e-007 9.29968e-007 -2.19292e-008 24.2508 17.6271 -9.62109 -1.33196e-005 -2.07889e-006 3.00616 -8.02894 -4.95147 -0.697699 178.502 7.25515 -1.45905 180 7.01585e-015 179.102 178.668 4.71098 179.919 -2.45963e-006 2.18442e-006 0.0322048 -18.5675 67.8686 19.4479 8.13649 25.2327 -3.48774 -171.934 6.02152 -1.7144 4.54188e-006 -4.6773e-006 -0.937135 -1.97772 -5.85932 0.0385394 -1.37365e-006 -4.47614e-006 -0.0909817 19.1415 68.6678 -20.1261 -8.13649 25.2327 3.48773 
53.8507 91.5271 5.74475 -2.25003 4.64663 -2.67275 -0.65148 -4.05836 0.000135583 -1.2995 -4.10209 0.0506035 -1.29672 -2.45726 0.0724773 33.3351 22.1528 -12.9133 -24.3295 6.72713 -0.866964 29.5791 -21.7134 -18.9005 -41.4963 38.0642 128.824 1.49301e-007 -5.46216e-007 -3.67408e-006 -10.0075 15.3765 1.37459 -6.95607e-006 -8.10334e-006 -3 8.02915 -4.95142 0.697667 13.8126 -23.6669 40.4245 56.7034 37.9548 -168.022 -2.38474e-007 9.29968e-007 -2.19292e-008 24.2034 17.6295 -9.60638 -1.33196e-005 -2.07889e-006 3.00616 -8.02894 -4.95147 -0.697699 178.498 7.23289 -1.45365 180 7.01585e-015 179.101 178.667 4.71223 179.92 -2.45963e-006 2.18442e-006 0.032203 -18.5673 67.8684 19.4477 8.13649 25.2327 -3.48774 -171.938 6.01098 -1.71057 4.54188e-006 -4.6773e-006 -0.937707 -1.97356 -5.8753 0.0383743 -1.37365e-006 -4.47614e-006 -0.0909637 19.146 68.6729 -20.1309 -8.13649 25.2327 3.48773 
53.8517 91.528 5.74713 -2.24651 4.62311 -2.66688 -0.649768 -4.0571 0.000786602 -1.29605 -4.10045 0.0519107 -1.29347 -2.45561 0.0737298 33.2641 22.1943 -12.8992 -24.2814 6.70088 -0.874335 29.5315 -21.6793 -18.8727 -41.535 38.1372 128.853 1.49301e-007 -5.46216e-007 -3.67408e-006 -9.96453 15.3992 1.36923 -6.95607e-006 -8.10334e-006 -3 8.02915 -4.95142 0.697667 13.7905 -23.6056 40.253 56.6407 38.0879 -168 -2.38474e-007 9.29968e-007 -2.19292e-008 24.1538 17.6295 -9.59042 -1.33196e-005 -2.07889e-006 3.00616 -8.02894 -4.95147 -0.697699 178.495 7.21027 -1.4485 180 7.01584e-015 179.1 178.665 4.71374 179.92 -2.45963e-006 2.18442e-006 0.0322013 -18.5671 67.8683 19.4475 8.13649 25.2327 -3.48774 -171.942 6.00124 -1.70692 4.54188e-006 -4.6773e-006 -0.938288 -1.96917 -5.89339 0.0381631 -1.37365e-006 -4.47614e-006 -0.0909452 19.1514 68.6791 -20.1366 -8.13649 25.2327 3.48773 
53.847 91.5246 5.74702 -2.24337 4.59909 -2.66086 -0.647901 -4.05568 0.00148233 -1.29228 -4.09856 0.0532167 -1.28993 -2.45372 0.0749752 33.1938 22.2386 -12.8856 -24.2355 6.66909 -0.882403 29.4729 -21.6467 -18.8492 -41.5605 38.2218 128.884 1.49301e-007 -5.46216e-007 -3.67408e-006 -9.92335 15.4208 1.36455 -6.95607e-006 -8.10334e-006 -3 8.02915 -4.95142 0.697667 13.7675 -23.5437 40.0795 56.5759 38.2279 -167.98 -2.38474e-007 9.29968e-007 -2.19292e-008 24.1023 17.6272 -9.57314 -1.33196e-005 -2.07889e-006 3.00616 -8.02894 -4.95147 -0.697699 178.491 7.18734 -1.44355 180 7.01584e-015 179.1 178.664 4.71553 179.92 -2.45963e-006 2.18442e-006 0.0321995 -18.5669 67.8681 19.4473 8.13649 25.2327 -3.48774 -171.945 5.99196 -1.70343 4.54188e-006 -4.6773e-006 -0.938876 -1.96464 -5.91299 0.0379176 -1.37365e-006 -4.47614e-006 -0.0909262 19.1575 68.686 -20.1431 -8.13649 25.2327 3.48773 
